<?xml version="1.0" encoding="utf-8"?>
<!-- Generator: Adobe Illustrator 15.1.0, SVG Export Plug-In . SVG Version: 6.00 Build 0)  -->
<!DOCTYPE svg PUBLIC "-//W3C//DTD SVG 1.1//EN" "http://www.w3.org/Graphics/SVG/1.1/DTD/svg11.dtd">
<svg version="1.1" xmlns="http://www.w3.org/2000/svg" xmlns:xlink="http://www.w3.org/1999/xlink" x="0px" y="0px" width="200px"
	 height="200px" viewBox="0 0 200 200" enable-background="new 0 0 200 200" xml:space="preserve">
<g id="Logo">
	<g id="_x32_px_Stroke" display="none">
		<path display="inline" fill="#A9A9A9" d="M198,2v196H2V2H198 M200,0H0v200h200V0L200,0z"/>
	</g>
	<g>
		<path fill="#C4C2C2" d="M99.016,94.104h-5.885v-14.7h35.305l11.764-11.77v-1.994l5.887,1.994V85.29h-47.07V94.104 M99.016,155.89
			H81.369l-17.654-5.879h17.654l11.762-11.769v-14.707h23.539l11.766-11.77v-1.997l5.885,1.997v17.654H99.016V155.89"/>
		<polyline fill="#FFFFFF" points="90.197,64.691 90.197,97.062 125.488,97.062 125.488,108.825 90.197,108.825 90.197,135.304 
			78.428,135.304 78.428,52.932 137.258,52.932 137.258,64.691 90.197,64.691 		"/>
		<path d="M140.199,67.635l-11.764,11.77H93.131v14.7h35.305v17.661l-11.766,11.77H93.131v14.707l-11.762,11.769H63.714V61.75
			l11.77-11.759h64.715V67.635 M137.258,64.691V52.932h-58.83v82.372h11.769v-26.479h35.291V97.062H90.197V64.691H137.258z"/>
	</g>
</g>
<g id="Guides">
	<g>
		<g>
		</g>
		<g>
		</g>
	</g>
</g>
</svg>
